<svg width="145" height="144" viewBox="0 0 145 144" fill="none" xmlns="http://www.w3.org/2000/svg">
<g clip-path="url(#clip0)">
<path d="M80.4662 33.606C76.6982 24.438 77.2262 14.124 82.6682 5.826L86.7362 0C79.2122 14.1 86.3762 31.416 97.8962 40.494C100.979 42.9066 104.415 44.8293 108.084 46.194C109.068 46.554 110.184 46.938 111.204 47.196C124.08 50.436 134.574 48.198 140.82 38.862C140.628 39.15 140.382 39.606 140.07 40.182C137.286 45.342 129.138 60.444 105.51 55.704C105.06 55.614 104.628 55.464 104.196 55.326L103.812 55.194L103.536 55.104C103.409 55.06 103.281 55.018 103.152 54.978C102.802 54.8576 102.454 54.7315 102.108 54.6C92.5982 50.976 84.4442 43.344 80.4662 33.606V33.606Z" fill="#21609B"/>
<path d="M49.3803 17.7961C40.1583 31.5661 40.6623 50.0041 47.8563 64.5721C49.1864 67.2829 50.7145 69.892 52.4283 72.3781C53.6823 74.2561 55.0623 76.3381 56.6763 77.7901C57.3423 78.5521 58.0382 79.2901 58.7462 80.0161L59.1542 80.4361L59.2923 80.5741C60.0085 81.2983 60.7428 82.0045 61.4943 82.6921L61.5003 82.6981L61.5123 82.7101C62.4192 83.5307 63.3496 84.325 64.3023 85.0921L64.5423 85.2841C65.3823 85.9561 66.2403 86.6161 67.1223 87.2461L67.1583 87.2701L67.2003 87.3001C67.4823 87.5041 67.7703 87.7021 68.0583 87.8941L68.3763 88.1101C68.5646 88.2347 68.7506 88.3627 68.9343 88.4941C69.5643 88.9141 70.2003 89.3161 70.8483 89.7121L71.0283 89.8141L71.1183 89.8741C71.8131 90.2885 72.5152 90.6905 73.2243 91.0801L73.4103 91.1761L73.6503 91.3081C73.9623 91.4761 74.2743 91.6501 74.5983 91.8121L74.7783 91.9021C75.7064 92.3746 76.6467 92.8228 77.5983 93.2461L77.7902 93.3241C78.6833 93.7174 79.5856 94.0895 80.4963 94.4401L80.6763 94.5061C81.2943 94.7461 81.9123 94.9621 82.5363 95.1781L82.8483 95.2861L83.3763 95.4601C83.6103 95.5321 83.8443 95.6161 84.0723 95.6941C84.7263 95.9221 85.3803 96.1441 86.0643 96.2641C133.668 104.448 144.66 66.4081 144.66 66.4081C134.754 81.2161 115.566 88.2841 95.0943 82.7641C94.1877 82.5163 93.2875 82.2462 92.3942 81.9541C92.1542 81.8821 91.9142 81.7981 91.6742 81.7141L91.5843 81.6841C90.9521 81.472 90.324 81.2479 89.7003 81.0121L89.6823 81.0001C88.6469 80.6083 87.6225 80.1881 86.6103 79.7401L86.2743 79.5901C85.0946 79.0568 83.9339 78.4824 82.7943 77.8681L82.5423 77.7361L81.8223 77.3521C81.1649 76.9848 80.5148 76.6048 79.8723 76.2121C78.6031 75.437 77.3623 74.6165 76.1523 73.7521C75.2784 73.1213 74.4201 72.4691 73.5783 71.7961L73.3683 71.6221C73.2456 71.5229 73.1236 71.4229 73.0023 71.3221C64.0383 63.9781 56.9343 53.9401 53.5623 42.5641C50.0223 30.7561 50.7843 17.5081 56.9163 6.7561L49.3803 17.7961Z" fill="#21609B"/>
<path d="M9.80421 33.822C-2.93979 52.842 -1.35579 77.592 8.38221 97.8C8.56221 98.19 8.76021 98.574 8.95221 98.952L9.09621 99.24L9.27621 99.594C9.42713 99.9086 9.5872 100.219 9.75621 100.524L9.83421 100.674L10.2542 101.454L10.3442 101.616C10.6442 102.168 10.9562 102.72 11.2742 103.272L11.3762 103.452C11.857 104.291 12.3592 105.117 12.8822 105.93L12.9902 106.11L13.3442 106.668C13.8482 107.448 14.3642 108.234 14.9042 109.008V109.014C14.917 109.033 14.931 109.051 14.9462 109.068L15.0902 109.266L15.2102 109.434C15.6782 110.094 16.1522 110.754 16.6382 111.402L17.1782 112.11C18.3543 113.634 19.5707 115.127 20.8262 116.586L20.8622 116.628L20.8922 116.658L20.9342 116.706C22.2071 118.14 23.5238 119.535 24.8822 120.888L25.0622 121.068L25.4882 121.488C26.1682 122.153 26.8603 122.805 27.5642 123.444L27.7622 123.624L27.9182 123.756C28.6691 124.426 29.4292 125.086 30.1982 125.736L30.5342 126.018C31.0442 126.438 31.5602 126.858 32.0822 127.266L32.9042 127.92C33.4802 128.358 34.0562 128.79 34.6382 129.21L34.7342 129.282L35.2742 129.678L35.4422 129.798C35.9702 130.182 36.5042 130.542 37.0442 130.902L37.1282 130.962C37.3703 131.125 37.6104 131.291 37.8482 131.46C38.8499 132.117 39.864 132.756 40.8902 133.374L41.2142 133.566C42.1227 134.103 43.0408 134.623 43.9682 135.126L44.2862 135.3L44.6402 135.492C44.9942 135.684 45.3422 135.876 45.7022 136.062L45.8522 136.134L46.0322 136.224L46.2362 136.326C46.3562 136.386 46.4822 136.446 46.6082 136.518C47.3522 136.884 48.0962 137.244 48.8522 137.598L49.1342 137.724L49.3262 137.814C51.2011 138.668 53.1086 139.448 55.0442 140.154L55.1042 140.172L55.3562 140.268C56.7241 140.76 58.1045 141.216 59.4962 141.636C60.1922 141.87 60.8942 142.098 61.6142 142.236C123.276 153.912 141.186 103.776 141.186 103.776C126.144 124.116 99.4442 129.486 74.1422 123.51C73.1902 123.279 72.2492 123.005 71.3222 122.688L70.6142 122.466C69.7022 122.178 68.7962 121.866 67.8962 121.548L67.5242 121.41C66.7142 121.11 65.9222 120.81 65.1242 120.486L64.4522 120.21C63.5822 119.85 62.7182 119.484 61.8662 119.094L61.5902 118.974C60.7772 118.596 59.9692 118.208 59.1662 117.81L58.9202 117.678C58.7918 117.617 58.6638 117.555 58.5362 117.492L57.2522 116.814L56.8442 116.598C56.7107 116.525 56.5767 116.453 56.4422 116.382L55.7222 115.986C55.0382 115.608 54.3662 115.206 53.6942 114.804L53.4362 114.654L53.0162 114.414C51.9717 113.77 50.9396 113.105 49.9202 112.422L49.6622 112.242C47.1015 110.535 44.647 108.673 42.3122 106.668C41.5989 106.065 40.8948 105.451 40.2002 104.826L40.1042 104.736C39.1921 103.897 38.296 103.041 37.4162 102.168C36.9081 101.666 36.408 101.156 35.9162 100.638L35.7122 100.434C34.9351 99.6219 34.1749 98.7937 33.4322 97.95L33.3962 97.914L33.3842 97.896C32.7482 97.176 32.1242 96.432 31.5122 95.688L31.0202 95.082C30.3921 94.3031 29.778 93.5129 29.1782 92.712C28.6502 91.992 28.1282 91.284 27.6182 90.558C13.5782 70.674 8.53221 43.242 19.7582 20.718L9.80421 33.822Z" fill="#21609B"/>
</g>
<defs>
<clipPath id="clip0">
<rect width="144" height="144" fill="white" transform="translate(0.660156)"/>
</clipPath>
</defs>
</svg>
