<svg width="163" height="144" viewBox="0 0 163 144" fill="none" xmlns="http://www.w3.org/2000/svg">
<g clip-path="url(#clip0)">
<path d="M133.83 46.6257C132.109 46.0353 130.374 45.4884 128.625 44.9855C128.919 43.7855 129.189 42.6 129.429 41.4354C133.369 22.3105 130.794 6.90317 121.996 1.83033C113.562 -3.03283 99.7674 2.03812 85.836 14.1625C84.463 15.3596 83.1205 16.5911 81.8097 17.856C80.9322 17.0149 80.0392 16.1901 79.1312 15.3821C64.5303 2.41833 49.8954 -3.04546 41.1076 2.04191C32.6804 6.92022 30.1851 21.4042 33.732 39.5293C34.0849 41.3244 34.4833 43.1102 34.927 44.8851C32.8554 45.4737 30.8564 46.1002 28.9434 46.7672C11.8251 52.7356 0.893066 62.0886 0.893066 71.7903C0.893066 81.8103 12.6291 91.8606 30.4585 97.9547C31.904 98.4468 33.3615 98.9027 34.8297 99.3221C34.3529 101.234 33.9295 103.158 33.5602 105.093C30.1787 122.904 32.8194 137.046 41.2238 141.893C49.9042 146.899 64.4735 141.754 78.6594 129.353C79.8097 128.345 80.9347 127.308 82.0333 126.244C83.4528 127.613 84.9102 128.943 86.4038 130.232C100.146 142.056 113.717 146.831 122.113 141.97C130.785 136.95 133.604 121.758 129.945 103.275C129.657 101.827 129.333 100.386 128.975 98.9533C129.999 98.6501 131.003 98.3381 131.982 98.0135C150.517 91.8726 162.577 81.9442 162.577 71.7903C162.577 62.0533 151.292 52.6371 133.83 46.6257V46.6257ZM129.81 91.4577C128.925 91.7501 128.019 92.0324 127.094 92.3072C125.048 85.8291 122.286 78.9411 118.907 71.8238C122.132 64.8764 124.787 58.0762 126.776 51.6404C128.43 52.1192 130.035 52.6238 131.582 53.1562C146.544 58.3074 155.67 65.9223 155.67 71.7903C155.67 78.0404 145.814 86.1543 129.81 91.4577V91.4577ZM123.169 104.616C124.787 112.789 125.018 120.178 123.946 125.955C122.984 131.146 121.047 134.607 118.652 135.993C113.557 138.942 102.661 135.109 90.9088 124.996C89.5196 123.798 88.1639 122.562 86.8434 121.288C91.3996 116.306 95.9526 110.514 100.396 104.08C108.213 103.387 115.597 102.253 122.294 100.705C122.624 102.035 122.917 103.34 123.169 104.616V104.616ZM56.0147 135.483C51.0366 137.241 47.0716 137.291 44.6747 135.909C39.5747 132.968 37.4545 121.613 40.3465 106.382C40.6903 104.582 41.0839 102.792 41.527 101.014C48.1497 102.479 55.4804 103.533 63.3152 104.168C67.7893 110.463 72.4737 116.249 77.1947 121.316C76.1914 122.286 75.1644 123.232 74.1145 124.153C67.8411 129.636 61.555 133.527 56.0147 135.483V135.483ZM32.6931 91.4192C24.8091 88.7242 18.2981 85.2221 13.8354 81.4004C9.82486 77.9665 7.80065 74.5566 7.80065 71.7903C7.80065 65.9027 16.5777 58.3933 31.2171 53.2895C32.9937 52.6705 34.8531 52.0863 36.7825 51.5381C38.8061 58.1192 41.46 65.0002 44.6628 71.9583C41.4183 79.0194 38.7265 86.0103 36.6834 92.6691C35.3432 92.2852 34.0127 91.8684 32.6931 91.4192V91.4192ZM40.5107 38.2023C37.4722 22.6737 39.4901 10.9598 44.5686 8.0198C49.9775 4.88843 61.9383 9.35306 74.5453 20.5472C75.3674 21.2788 76.1761 22.0252 76.9712 22.7861C72.2735 27.8305 67.632 33.5735 63.1977 39.8312C55.5935 40.536 48.3145 41.6678 41.6223 43.1842C41.21 41.5334 40.8394 39.8724 40.5107 38.203V38.2023ZM110.254 55.4242C108.673 52.6938 107.034 49.9979 105.337 47.3381C110.496 47.9905 115.439 48.8564 120.08 49.915C118.687 54.3815 116.95 59.0507 114.906 63.8381C113.411 61.0028 111.86 58.1976 110.254 55.4242V55.4242ZM81.8129 27.7225C84.9985 31.1741 88.1893 35.0274 91.3276 39.2084C84.9613 38.9078 78.5843 38.9065 72.2179 39.2046C75.3594 35.0621 78.5773 31.2139 81.8129 27.7225ZM53.1891 55.4716C51.6028 58.2226 50.0809 61.0103 48.6246 63.8324C46.6137 59.0621 44.8926 54.3714 43.4874 49.8417C48.1004 48.8097 53.0198 47.9659 58.1457 47.3255C56.43 50.0015 54.7773 52.7174 53.1891 55.471V55.4716ZM58.2929 96.7465C52.9971 96.1554 48.0038 95.3552 43.392 94.351C44.8194 89.7404 46.5783 84.9499 48.6329 80.0773C50.0949 82.9014 51.6231 85.6908 53.2162 88.4432C54.8545 91.2726 56.551 94.044 58.2929 96.7465ZM82.0036 116.344C78.7295 112.813 75.4642 108.905 72.2754 104.703C75.3714 104.824 78.5274 104.886 81.7352 104.886C85.0307 104.886 88.2884 104.812 91.495 104.669C88.3465 108.947 85.1678 112.861 82.0036 116.344ZM114.971 79.8284C117.132 84.7547 118.953 89.52 120.4 94.0516C115.712 95.1215 110.651 95.9829 105.318 96.6227C107.027 93.9136 108.681 91.1708 110.281 88.3958C111.908 85.5752 113.471 82.7187 114.971 79.8284V79.8284ZM104.298 84.9448C101.849 89.1994 99.2623 93.3732 96.5419 97.4596C91.6141 97.8086 86.6754 97.982 81.7352 97.9794C76.7034 97.9794 71.8093 97.8227 67.0964 97.5171C64.305 93.4401 61.6688 89.259 59.1935 84.9827H59.1941C56.7304 80.7291 54.4292 76.3835 52.2954 71.9552C54.4238 67.5258 56.718 63.1781 59.1733 58.9213L59.1726 58.9219C61.627 54.6639 64.2421 50.5007 67.0124 46.4413C71.8206 46.0775 76.7514 45.888 81.7345 45.888H81.7352C86.7411 45.888 91.6781 46.0794 96.4851 46.4457C99.2274 50.4991 101.826 54.648 104.276 58.8846C106.739 63.1321 109.064 67.4586 111.246 71.8573C109.086 76.3009 106.769 80.6662 104.298 84.9448V84.9448ZM118.547 7.81391C123.961 10.9364 126.066 23.5282 122.665 40.0408C122.447 41.0943 122.204 42.1674 121.938 43.2556C115.23 41.707 107.946 40.5556 100.319 39.84C95.8769 33.5135 91.2733 27.7617 86.652 22.7823C87.8632 21.6149 89.1031 20.4777 90.3707 19.3718C102.308 8.98422 113.464 4.88275 118.547 7.81391V7.81391ZM81.7352 57.3524C89.7089 57.3524 96.1731 63.8166 96.1731 71.7903C96.1731 79.764 89.7089 86.2282 81.7352 86.2282C73.7615 86.2282 67.2973 79.764 67.2973 71.7903C67.2973 63.8166 73.7615 57.3524 81.7352 57.3524V57.3524Z" fill="#00D8FF"/>
</g>
<defs>
<clipPath id="clip0">
<rect width="161.69" height="144" fill="white" transform="translate(0.890137)"/>
</clipPath>
</defs>
</svg>
