<svg width="160" height="160" viewBox="0 0 145 144" fill="none" xmlns="http://www.w3.org/2000/svg">
<path d="M27.2392 122.405L17.1277 9H128.233L118.108 122.387L72.6127 135L27.2392 122.405Z" fill="#E44F26"/>
<path d="M72.6802 125.361L109.445 115.169L118.094 18.2745H72.6802V125.361Z" fill="#F1662A"/>
<path d="M72.6802 60.3314H54.2752L53.0062 46.0889H72.6802V32.1794H37.8052L38.1382 35.9144L41.5537 74.2409H72.6802V60.3314V60.3314Z" fill="#EBEBEB"/>
<path d="M72.6801 96.453L72.6171 96.471L57.1281 92.2905L56.1381 81.198H42.1746L44.1231 103.032L72.6171 110.943L72.6801 110.925V96.453Z" fill="#EBEBEB"/>
<path d="M72.6306 60.3315V74.241H89.7576L88.1466 92.2815L72.6306 96.4665V110.939L101.147 103.032L101.354 100.683L104.621 64.0665L104.963 60.3315H72.6306V60.3315Z" fill="white"/>
<path d="M72.6306 32.1794V46.0889H106.228L106.507 42.9659L107.141 35.9144L107.474 32.1794H72.6306V32.1794Z" fill="white"/>
</svg>
