<svg width="145" height="144" viewBox="0 0 145 144" fill="none" xmlns="http://www.w3.org/2000/svg">
<path d="M27.2191 122.405L17.1121 9H128.208L118.088 122.387L72.5926 135L27.2191 122.405Z" fill="#1572B6"/>
<path d="M72.6602 125.361L109.425 115.168L118.074 18.2744H72.6602V125.361Z" fill="#33A9DC"/>
<path d="M72.6602 59.3595H91.0652L92.3342 45.117H72.6602V31.2075H107.535L107.202 34.938L103.787 73.269H72.6602V59.3595V59.3595Z" fill="white"/>
<path d="M72.7457 95.4809L72.6827 95.4989L57.1937 91.3139L56.2037 80.2214H42.2402L44.1887 102.06L72.6782 109.971L72.7457 109.953V95.4809V95.4809Z" fill="#EBEBEB"/>
<path d="M89.8815 72.6794L88.2075 91.305L72.696 95.4899V109.962L101.208 102.06L101.42 99.711L103.836 72.6794H89.8815V72.6794Z" fill="white"/>
<path d="M72.7097 31.2075V45.117H39.1127L38.8337 41.9895L38.1992 34.938L37.8662 31.2075H72.7097V31.2075Z" fill="#EBEBEB"/>
<path d="M72.6601 59.3596V73.2691H57.3646L57.0856 70.1416L56.4556 63.0901L56.1226 59.3596H72.6601V59.3596Z" fill="#EBEBEB"/>
</svg>
