<svg width="636" height="144" viewBox="0 0 636 144" fill="none" xmlns="http://www.w3.org/2000/svg">
<g clip-path="url(#clip0)">
<path fill-rule="evenodd" clip-rule="evenodd" d="M608.308 10.7329L634.898 10.8794C634.898 10.8794 585.461 77.8692 581.424 83.3288C580.113 85.0965 578.122 87.0032 577.112 89.3668C574.558 95.3081 571.936 108.341 571.936 108.341L547.607 108.463C547.607 108.463 551.393 94.8773 551.236 87.6413C551.1 81.3202 547.872 75.0066 546.062 68.6668C544.233 62.2489 541.749 49.6911 541.749 49.6911H566.762L570.212 63.4915L608.308 10.7329" fill="#1A1918"/>
<path fill-rule="evenodd" clip-rule="evenodd" d="M557.956 24.861C562.863 27.8192 565.875 44.1384 565.875 44.1384C565.875 44.1384 540.198 44.517 526.225 44.517H514.15L499.487 108.341H477.063C477.063 108.341 491.019 38.9805 494.313 26.4053C495.381 22.3336 501.627 23.0325 512.175 23.0325H529.02C539.897 23.0325 552.61 21.6434 557.956 24.861" fill="#1A1918"/>
<path fill-rule="evenodd" clip-rule="evenodd" d="M453.56 55.9451C453.56 55.9451 454.259 51.8486 451.189 47.104C448.566 43.0596 446.144 42.1187 439.243 41.9027C419.76 41.2907 420.138 55.7291 420.138 55.7291L453.56 55.9451ZM474.691 39.41C477.546 49.7097 472.104 73.9104 472.104 73.9104C472.104 73.9104 443.683 73.4362 428.117 73.9104C423.276 74.0581 417.483 73.384 416.042 75.6359C414.015 78.7915 416.783 83.649 419.129 85.701C421.829 88.0634 427.089 88.3327 428.979 88.5723C441.614 90.1774 468.058 88.9869 468.058 88.9869L463.477 109.271C463.477 109.271 426.108 111.146 407.417 106.684C403.726 105.805 400.266 104.029 397.929 101.51C397.291 100.821 396.737 99.8813 396.134 99.0694C395.652 98.4214 394.247 96.2925 393.616 94.6091C389.347 83.2331 394.116 61.4395 398.792 49.7606C399.334 48.4075 400.015 46.6907 400.733 45.232C401.629 43.4134 402.388 41.3602 403.104 40.2727C403.586 39.5229 404.183 39.04 404.683 38.3325C405.26 37.4958 405.932 36.6851 406.554 35.9614C408.279 33.9603 410.237 32.5451 412.592 30.7874C420.379 24.9554 434.472 20.428 451.404 22.161C457.778 22.8165 467.405 25.0931 472.104 31.6489C473.362 33.3992 473.984 36.8751 474.691 39.4112V39.41Z" fill="#1A1918"/>
<path fill-rule="evenodd" clip-rule="evenodd" d="M371.839 22.9531L393.583 22.8252C393.583 22.8252 381.464 80.3097 375.288 108.341H350.275C332.794 108.341 317.225 110.506 310.601 97.9907C304.176 85.8388 310.308 65.8551 313.188 52.2782C315.224 42.6699 319.512 23.0313 319.512 23.0313L342.041 22.8252C342.041 22.8252 335.675 53.4004 333.026 68.6669C332.077 74.1351 330.121 79.2844 332.164 83.3275C334.104 87.1758 336.822 87.4514 345.101 87.6413C347.724 87.7034 356.314 87.6413 356.314 87.6413L371.839 22.9531" fill="#1A1918"/>
<path fill-rule="evenodd" clip-rule="evenodd" d="M270.064 64.353C272.341 56.2642 275.662 47.4926 275.239 40.2033C274.783 32.4074 268.246 25.3092 264.027 23.817C251.323 19.3319 239.429 25.6021 234.702 30.7166C228.587 37.3406 226.517 45.0782 224.352 55.7304C222.74 63.638 221.419 71.9863 224.352 78.1535C229.543 89.0565 245.733 86.6755 263.165 86.7798C265.752 79.8455 267.891 72.057 270.064 64.353ZM300.252 32.4422C302.735 50.5017 293.206 70.4358 286.642 87.7704C293.335 88.375 299.201 87.6773 299.623 88.1764C300.062 88.8231 295.136 108.868 293.419 108.92C288.108 109.058 270.505 109.204 263.165 109.204C239.212 109.204 216.805 110.764 205.378 98.8547C200.738 94.0158 197.529 85.7172 196.752 79.879C195.459 70.1329 197.08 59.4024 199.34 50.5551C201.385 42.5668 204.005 35.0292 207.965 28.1284C218.031 10.5604 235.539 -2.48033 264.889 0.530014C270.582 1.11594 278.758 3.60863 283.865 6.56684C284.217 6.77415 285.452 7.75732 285.735 7.92988C292.636 12.3206 298.924 22.7991 300.252 32.4422V32.4422Z" fill="#1A1918"/>
<path fill-rule="evenodd" clip-rule="evenodd" d="M194.277 23.0574C192.828 29.6553 191.379 37.1346 189.852 43.6543H165.703C167.573 36.427 169.006 29.2419 170.878 22.9543C178.606 22.9543 185.791 23.0574 194.278 23.0574" fill="#1A1918"/>
<path fill-rule="evenodd" clip-rule="evenodd" d="M164.84 49.6924H188.128C185.083 66.5453 179.054 93.7303 174.328 112.654C171.37 124.497 169.395 133.138 161.39 139.391C160.674 139.952 160.26 139.685 159.665 140.253C158.19 141.66 151.367 143.291 147.591 143.703C141.45 144.369 134.507 143.79 126.959 143.635C128.934 136.416 131.169 127.748 132.929 121.278C151.326 123.505 151.792 106.116 155.353 89.3669C157.414 79.6891 163.659 53.5729 164.84 49.6924" fill="#1A1918"/>
<path fill-rule="evenodd" clip-rule="evenodd" d="M110.502 93.6794L110.003 94.9729C101.5 111.533 86.4306 121.692 64.9373 122.141C54.8896 122.348 45.3161 119.769 39.062 116.966C25.5658 110.902 14.2133 99.6567 8.0139 87.6414C-0.879341 70.4172 -2.4832 46.4574 16.0084 28.5616C16.2939 28.5616 13.7652 32.4422 14.0507 32.4422L13.5418 34.0982C0.216796 75.816 41.2704 111.568 81.1783 107.479C90.7692 106.495 102.999 101.243 110.502 93.6794Z" fill="#21609B"/>
<path fill-rule="evenodd" clip-rule="evenodd" d="M86.3524 76.4292C96.3927 76.4975 106.88 71.8051 113.09 65.2171C107.657 79.0088 91.925 87.8735 70.829 85.0543C53.1641 82.6907 36.3372 64.9154 34.6043 47.1041C33.3368 34.1416 37.8542 26.4053 45.2988 17.0205C42.7117 21.9289 41.7447 25.7139 41.5039 28.1284C38.676 56.1686 63.9033 76.2815 86.3524 76.4292" fill="#21609B"/>
<path fill-rule="evenodd" clip-rule="evenodd" d="M112.081 41.6011C110.521 45.1812 101.534 51.9418 97.5658 52.7872C81.8511 56.1352 71.7873 48.6832 66.5151 40.2033C65.7318 38.9371 64.2831 35.4786 64.0237 34.5985C61.9791 27.6468 62.9189 17.1323 69.0178 11.6901C67.1805 16.8654 66.9124 22.8761 67.8794 26.784C68.4653 29.1463 70.2504 33.2714 72.0368 35.8659C75.2867 40.5919 77.3486 41.7401 81.5234 44.2502C83.4041 45.3799 85.4213 46.2861 86.2928 46.5343C90.2515 47.7 98.6098 50.7699 112.082 41.6011" fill="#21609B"/>
</g>
<defs>
<clipPath id="clip0">
<rect width="635.59" height="144" fill="white" transform="translate(0.379883)"/>
</clipPath>
</defs>
</svg>
