<svg width="496" height="144" viewBox="0 0 496 144" fill="none" xmlns="http://www.w3.org/2000/svg">
<g clip-path="url(#clip0)">
<path d="M4.06028 111.749V56.6799H72.8169V53.4588H4.06028V3.22019H77.164V0H0.840088V114.969H77.8076V111.749H4.06124H4.06028ZM139.802 32.2038L111.302 69.7221L83.4439 32.2048H79.2573L109.369 72.1382L76.3579 114.968H80.2227L111.3 74.5514L142.538 114.968H146.563L113.393 72.1363L143.665 32.2028H139.801L139.802 32.2038ZM156.226 143.309V91.7831H156.548C158.48 99.2972 162.291 105.336 167.981 109.898C173.67 114.46 180.915 116.741 189.718 116.741C195.407 116.741 200.453 115.588 204.854 113.28C209.255 110.972 212.932 107.832 215.884 103.86C218.836 99.8877 221.091 95.2719 222.647 90.0116C224.203 84.7522 224.982 79.2232 224.982 73.4274C224.982 67.2006 224.176 61.4571 222.566 56.1977C220.956 50.9373 218.621 46.3748 215.562 42.5109C212.503 38.6461 208.799 35.6395 204.451 33.494C200.104 31.3466 195.193 30.2729 189.718 30.2729C185.531 30.2729 181.64 30.8904 178.044 32.1246C174.448 33.3597 171.255 35.1031 168.464 37.3578C165.656 39.6299 163.213 42.3177 161.217 45.3281C159.178 48.3879 157.621 51.7424 156.548 55.3926H156.226V32.2038H153.006V143.309H156.226V143.309ZM189.718 113.681C179.628 113.681 171.523 110.219 165.404 103.295C159.286 96.3718 156.226 86.4145 156.226 73.4255C156.226 68.0579 156.978 62.9589 158.48 58.1286C159.983 53.2984 162.157 49.0576 165.001 45.4083C167.846 41.7581 171.362 38.8597 175.548 36.7132C179.734 34.5658 184.458 33.4921 189.718 33.4921C195.085 33.4921 199.782 34.5658 203.808 36.7132C207.833 38.8597 211.161 41.7851 213.791 45.4885C216.421 49.1919 218.407 53.4327 219.749 58.2089C221.09 62.986 221.761 68.0579 221.761 73.4255C221.761 78.2567 221.145 83.0609 219.91 87.8371C218.675 92.6142 216.77 96.9081 214.193 100.72C211.617 104.529 208.317 107.642 204.291 110.059C200.265 112.474 195.407 113.681 189.718 113.681V113.681ZM242.694 114.969V68.112C242.694 63.6035 243.338 59.2014 244.627 54.9085C245.915 50.6145 247.901 46.83 250.584 43.5566C253.268 40.2823 256.676 37.7058 260.809 35.827C264.942 33.9482 269.853 33.1703 275.543 33.4921V30.2719C270.604 30.1656 266.284 30.701 262.581 31.882C258.876 33.063 255.683 34.6731 253 36.7132C250.316 38.7524 248.169 41.1405 246.559 43.8784C244.95 46.612 243.756 49.5694 243.016 52.6537H242.694V32.2038H239.474V114.97H242.694V114.969ZM279.568 74.2305H348.807C349.022 68.5411 348.459 63.0672 347.117 57.8068C345.775 52.5465 343.628 47.8766 340.676 43.7982C337.724 39.7189 333.913 36.4446 329.243 33.9753C324.573 31.506 319.018 30.2719 312.578 30.2719C307.961 30.2719 303.453 31.2383 299.052 33.1712C294.65 35.1031 290.786 37.9203 287.458 41.6237C284.131 45.3271 281.447 49.8627 279.408 55.2312C277.368 60.5979 276.348 66.7164 276.348 73.5869C276.348 79.7054 277.046 85.422 278.441 90.7355C279.837 96.049 281.983 100.666 284.882 104.584C287.781 108.502 291.511 111.534 296.073 113.681C300.635 115.828 306.137 116.848 312.578 116.741C322.024 116.741 329.968 114.083 336.408 108.77C342.85 103.456 346.66 95.9687 347.841 86.3072H344.621C343.226 95.4324 339.656 102.276 333.913 106.837C328.169 111.4 320.951 113.681 312.255 113.681C306.351 113.681 301.359 112.661 297.28 110.622C293.202 108.583 289.873 105.791 287.297 102.249C284.721 98.7057 282.815 94.5461 281.581 89.769C280.346 84.9929 279.675 79.8127 279.568 74.2305ZM345.587 71.0104H279.569C279.89 65.2136 280.964 60.0074 282.788 55.3917C284.614 50.775 287.002 46.83 289.954 43.5566C292.906 40.2823 296.342 37.7869 300.26 36.0686C304.178 34.3512 308.391 33.4921 312.9 33.4921C318.267 33.4921 322.989 34.4856 327.07 36.4716C331.148 38.4577 334.557 41.1685 337.295 44.6033C340.032 48.038 342.098 52.0371 343.493 56.5988C344.889 61.1613 345.587 65.9655 345.587 71.0104ZM415.632 56.6799H418.852C418.852 47.4475 416.168 40.7385 410.801 36.5518C405.433 32.3652 398.133 30.2719 388.902 30.2719C383.749 30.2719 379.402 30.9165 375.859 32.2048C372.317 33.4921 369.418 35.1563 367.164 37.1955C364.91 39.2347 363.3 41.4894 362.333 43.9587C361.367 46.4279 360.884 48.7899 360.884 51.0436C360.884 55.5521 361.689 59.1482 363.3 61.832C364.91 64.5159 367.432 66.6092 370.867 68.112C373.229 69.1847 375.912 70.1512 378.918 71.0113C381.924 71.8695 385.413 72.7818 389.385 73.7473C392.927 74.6075 396.416 75.4657 399.852 76.3239C403.286 77.183 406.319 78.337 408.949 79.7857C411.579 81.2353 413.726 83.087 415.39 85.3417C417.053 87.5955 417.885 90.548 417.885 94.1973C417.885 97.7402 417.054 100.746 415.39 103.214C413.74 105.671 411.568 107.733 409.03 109.253C406.453 110.809 403.581 111.936 400.415 112.634C397.248 113.332 394.162 113.681 391.156 113.681C381.388 113.681 373.9 111.507 368.693 107.16C363.487 102.812 360.885 95.9687 360.885 86.629H357.663C357.663 97.0425 360.482 104.664 366.117 109.495C371.753 114.325 380.099 116.741 391.156 116.741C394.698 116.741 398.268 116.337 401.865 115.532C405.46 114.727 408.681 113.413 411.525 111.587C414.345 109.788 416.714 107.364 418.449 104.503C420.22 101.604 421.107 98.0621 421.107 93.8754C421.107 89.9034 420.328 86.6832 418.772 84.2139C417.215 81.7456 415.175 79.7054 412.652 78.0953C410.13 76.4853 407.285 75.224 404.118 74.3117C400.934 73.394 397.74 72.5081 394.537 71.654C390.596 70.62 386.651 69.6004 382.702 68.5952C379.321 67.736 376.181 66.7164 373.283 65.5355C370.492 64.3545 368.264 62.6642 366.6 60.4636C364.936 58.263 364.105 55.123 364.105 51.0436C364.105 50.2927 364.319 48.9503 364.748 47.0184C365.177 45.0855 366.198 43.1265 367.808 41.1405C369.418 39.1554 371.887 37.3839 375.215 35.827C378.542 34.271 383.105 33.4921 388.902 33.4921C392.874 33.4921 396.496 33.9221 399.77 34.7803C403.045 35.6395 405.863 37.008 408.224 38.8868C410.586 40.7655 412.41 43.1536 413.699 46.052C414.987 48.9513 415.632 52.4933 415.632 56.6799V56.6799ZM490.184 56.6799H493.404C493.404 47.4475 490.721 40.7385 485.354 36.5518C479.986 32.3652 472.687 30.2719 463.454 30.2719C458.302 30.2719 453.954 30.9165 450.412 32.2048C446.869 33.4921 443.971 35.1563 441.717 37.1955C439.462 39.2347 437.852 41.4894 436.886 43.9587C435.919 46.4279 435.437 48.7899 435.437 51.0436C435.437 55.5521 436.242 59.1482 437.853 61.832C439.462 64.5159 441.986 66.6092 445.42 68.112C447.782 69.1847 450.465 70.1512 453.471 71.0113C456.476 71.8695 459.965 72.7818 463.937 73.7473C467.48 74.6075 470.969 75.4657 474.404 76.3239C477.84 77.183 480.871 78.337 483.502 79.7857C486.132 81.2353 488.279 83.087 489.942 85.3417C491.607 87.5955 492.439 90.548 492.439 94.1973C492.439 97.7402 491.607 100.746 489.942 103.214C488.293 105.67 486.121 107.733 483.583 109.253C481.006 110.809 478.134 111.936 474.967 112.634C471.801 113.332 468.714 113.681 465.709 113.681C455.94 113.681 448.453 111.507 443.247 107.16C438.04 102.812 435.437 95.9687 435.437 86.629H432.217C432.217 97.0425 435.034 104.664 440.67 109.495C446.306 114.325 454.652 116.741 465.709 116.741C469.252 116.741 472.821 116.337 476.417 115.532C480.012 114.727 483.233 113.413 486.079 111.587C488.899 109.788 491.267 107.364 493.002 104.503C494.774 101.604 495.659 98.0621 495.659 93.8754C495.659 89.9034 494.881 86.6832 493.324 84.2139C491.768 81.7456 489.729 79.7054 487.205 78.0953C484.683 76.4853 481.838 75.224 478.672 74.3117C475.487 73.394 472.293 72.5081 469.09 71.654C465.149 70.62 461.204 69.6004 457.255 68.5952C453.874 67.736 450.734 66.7164 447.835 65.5355C445.044 64.3545 442.817 62.6642 441.153 60.4636C439.489 58.263 438.657 55.123 438.657 51.0436C438.657 50.2927 438.872 48.9503 439.302 47.0184C439.731 45.0855 440.751 43.1265 442.361 41.1405C443.971 39.1554 446.44 37.3839 449.767 35.827C453.096 34.271 457.657 33.4921 463.455 33.4921C467.427 33.4921 471.049 33.9221 474.324 34.7803C477.598 35.6395 480.415 37.008 482.777 38.8868C485.139 40.7655 486.964 43.1536 488.252 46.052C489.54 48.9513 490.185 52.4933 490.185 56.6799H490.184Z" fill="#222222"/>
</g>
<defs>
<clipPath id="clip0">
<rect width="494.82" height="144" fill="white" transform="translate(0.840088)"/>
</clipPath>
</defs>
</svg>
