<svg width="144" height="144" viewBox="0 0 144 144" fill="none" xmlns="http://www.w3.org/2000/svg">
<path d="M0 0H144V144H0V0Z" fill="#F7DF1E"/>
<path d="M37.8631 120.337L48.8825 113.668C51.0087 117.437 52.9426 120.626 57.5815 120.626C62.0281 120.626 64.8322 118.887 64.8322 112.121V66.1101H78.3642V112.313C78.3642 126.329 70.1484 132.708 58.1615 132.708C47.3362 132.708 41.0525 127.102 37.8625 120.336" fill="black"/>
<path d="M85.7144 118.887L96.7327 112.507C99.6335 117.244 103.403 120.724 110.072 120.724C115.68 120.724 119.255 117.92 119.255 114.054C119.255 109.414 115.582 107.77 109.396 105.065L106.013 103.614C96.2501 99.4584 89.774 94.2384 89.774 83.2191C89.774 73.0693 97.5067 65.3361 109.59 65.3361C118.193 65.3361 124.379 68.3331 128.825 76.1625L118.288 82.9294C115.968 78.7731 113.456 77.13 109.589 77.13C105.626 77.13 103.113 79.6432 103.113 82.9294C103.113 86.9889 105.626 88.6331 111.425 91.1464L114.808 92.5959C126.311 97.5262 132.787 102.552 132.787 113.861C132.787 126.041 123.218 132.71 110.362 132.71C97.7964 132.71 89.6767 126.717 85.7139 118.887" fill="black"/>
</svg>
