<svg width="128" height="144" viewBox="0 0 128 144" fill="none" xmlns="http://www.w3.org/2000/svg">
<g clip-path="url(#clip0)">
<path d="M63.78 143.733C61.7994 143.733 59.9508 143.205 58.2343 142.28L40.6717 131.849C38.0309 130.396 39.3513 129.868 40.1436 129.604C43.7087 128.416 44.3689 128.152 48.0661 126.038C48.4627 125.774 48.9909 125.906 49.3865 126.17L62.8557 134.225C63.3839 134.49 64.0441 134.49 64.4402 134.225L117.127 103.723C117.655 103.459 117.92 102.931 117.92 102.27V41.3963C117.92 40.736 117.655 40.2079 117.127 39.9438L64.4402 9.57276C63.9121 9.30867 63.2518 9.30867 62.8557 9.57276L10.1687 39.9443C9.6405 40.2084 9.37641 40.8686 9.37641 41.3968V102.27C9.37641 102.799 9.6405 103.459 10.1687 103.723L24.5622 112.041C32.3531 116.003 37.2382 111.381 37.2382 106.76V46.6779C37.2382 45.8857 37.8989 45.0934 38.8232 45.0934H45.5578C46.35 45.0934 47.1423 45.7536 47.1423 46.6779V106.759C47.1423 117.191 41.464 123.265 31.5604 123.265C28.5234 123.265 26.1467 123.265 19.4126 119.964L5.54721 112.041C2.11413 110.06 0.00146484 106.363 0.00146484 102.402V41.5288C0.00146484 37.5676 2.11413 33.8704 5.54721 31.8893L58.2343 1.38668C61.5353 -0.461901 66.0247 -0.461901 69.3258 1.38668L122.013 31.8893C125.446 33.8699 127.559 37.5671 127.559 41.5288V102.402C127.559 106.364 125.446 110.061 122.013 112.041L69.3258 142.545C67.6092 143.337 65.6286 143.733 63.78 143.733V143.733ZM80.0216 101.874C56.9133 101.874 52.1599 91.3104 52.1599 82.3311C52.1599 81.5389 52.8201 80.7466 53.7444 80.7466H60.6105C61.4028 80.7466 62.0635 81.2748 62.0635 82.067C63.1198 89.0652 66.1568 92.4988 80.1537 92.4988C91.2456 92.4988 95.9996 89.99 95.9996 84.0482C95.9996 80.6146 94.6792 78.1058 77.3808 76.3888C62.9878 74.9363 54.0084 71.7673 54.0084 60.2797C54.0084 49.5833 62.9873 43.2453 78.041 43.2453C94.9428 43.2453 103.262 49.0552 104.318 61.7316C104.318 62.1278 104.186 62.5239 103.922 62.92C103.658 63.1841 103.262 63.4482 102.866 63.4482H95.9996C95.3389 63.4482 94.6792 62.92 94.5467 62.2598C92.9622 54.9975 88.8689 52.6208 78.041 52.6208C65.8932 52.6208 64.4402 56.8461 64.4402 60.0151C64.4402 63.8448 66.1568 65.0327 82.5304 67.1454C98.7725 69.258 106.431 72.2955 106.431 83.6515C106.299 95.2717 96.7919 101.874 80.0216 101.874Z" fill="#539E43"/>
</g>
<defs>
<clipPath id="clip0">
<rect width="127.56" height="144" fill="white"/>
</clipPath>
</defs>
</svg>
