<svg width="145" height="144" viewBox="0 0 145 144" fill="none" xmlns="http://www.w3.org/2000/svg">
<path d="M140.39 49.5V94.5H131.39L122.39 67.5V94.5H113.39V49.5H122.39L131.39 76.5V49.5H140.39Z" fill="#F24E1E"/>
<path d="M96.8931 94.5H84.8916C82.9033 94.4988 80.9966 93.7087 79.5902 92.3031C78.1838 90.8976 77.3925 88.9914 77.3901 87.003V57.0015C77.3913 55.0131 78.1814 53.1065 79.587 51.7C80.9926 50.2936 82.8988 49.5024 84.8871 49.5H96.8886C98.877 49.5012 100.784 50.2913 102.19 51.6969C103.597 53.1024 104.388 55.0086 104.39 56.997V86.9985C104.389 88.9869 103.599 90.8935 102.193 92.3C100.788 93.7064 98.8815 94.4976 96.8931 94.5ZM86.3901 85.5H95.3901V58.5H86.3901V85.5Z" fill="#F24E1E"/>
<path d="M60.8931 94.5H41.3901V85.5H59.3901V76.5H50.3901C48.0039 76.4976 45.7161 75.5486 44.0288 73.8613C42.3415 72.174 41.3925 69.8862 41.3901 67.5V56.997C41.3925 55.0094 42.1831 53.1039 43.5886 51.6985C44.994 50.293 46.8995 49.5024 48.8871 49.5H68.3901V58.5H50.3901V67.5H59.3901C61.7764 67.5024 64.0642 68.4514 65.7515 70.1387C67.4388 71.826 68.3878 74.1138 68.3901 76.5V86.9985C68.3889 88.9869 67.5988 90.8935 66.1933 92.3C64.7877 93.7064 62.8815 94.4976 60.8931 94.5V94.5Z" fill="#F24E1E"/>
<path d="M24.8886 94.5H12.8916C10.9033 94.4988 8.9966 93.7087 7.59018 92.3031C6.18376 90.8976 5.39252 88.9914 5.39014 87.003V76.5H14.3901V85.5H23.3901V49.5H32.3901V87.003C32.3878 88.9914 31.5965 90.8976 30.1901 92.3031C28.7837 93.7087 26.877 94.4988 24.8886 94.5V94.5Z" fill="#F24E1E"/>
</svg>
