<svg width="240" height="144" viewBox="0 0 240 144" fill="none" xmlns="http://www.w3.org/2000/svg">
<g clip-path="url(#clip0)">
<path d="M119.69 0C87.7734 0 67.8248 15.9588 59.8459 47.8753C71.8147 31.9166 85.778 25.9322 101.737 29.9221C110.842 32.198 117.35 38.8043 124.553 46.1155C136.288 58.0273 149.869 71.813 179.534 71.813C211.451 71.813 231.399 55.8542 239.378 23.9377C227.409 39.8964 213.446 45.8808 197.487 41.8909C188.383 39.615 181.875 33.0087 174.671 25.6975C162.936 13.7857 149.355 0 119.69 0ZM59.8459 71.813C27.9293 71.813 7.98062 87.7717 0.00170898 119.688C11.9705 103.73 25.9339 97.7451 41.8926 101.735C50.9973 104.011 57.5054 110.617 64.7091 117.929C76.4442 129.84 90.0251 143.626 119.69 143.626C151.607 143.626 171.555 127.667 179.534 95.7506C167.565 111.709 153.602 117.694 137.643 113.704C128.539 111.428 122.03 104.822 114.827 97.5104C103.092 85.5986 89.5108 71.813 59.8459 71.813Z" fill="url(#paint0_linear)"/>
</g>
<defs>
<linearGradient id="paint0_linear" x1="-6.64817" y1="45.9603" x2="200.093" y2="165.163" gradientUnits="userSpaceOnUse">
<stop stop-color="#2298BD"/>
<stop offset="1" stop-color="#0ED7B5"/>
</linearGradient>
<clipPath id="clip0">
<rect width="239.38" height="144" fill="white"/>
</clipPath>
</defs>
</svg>
