<svg width="149" height="144" viewBox="0 0 149 144" fill="none" xmlns="http://www.w3.org/2000/svg">
<g clip-path="url(#clip0)">
<path d="M74.2906 0C33.5766 0 0.562012 33.0088 0.562012 73.7286C0.562012 106.304 21.6874 133.941 50.9822 143.69C54.6668 144.372 56.0199 142.09 56.0199 140.143C56.0199 138.385 55.9507 132.577 55.9196 126.416C35.4083 130.876 31.0802 117.717 31.0802 117.717C27.7262 109.195 22.8935 106.929 22.8935 106.929C16.2044 102.353 23.3981 102.447 23.3981 102.447C30.8014 102.967 34.6998 110.045 34.6998 110.045C41.276 121.316 51.9481 118.058 56.1552 116.173C56.817 111.409 58.7276 108.156 60.8364 106.315C44.4601 104.451 27.2452 98.1285 27.2452 69.878C27.2452 61.8284 30.1252 55.2511 34.8415 50.0878C34.076 48.2308 31.5525 40.7324 35.5557 30.5764C35.5557 30.5764 41.7472 28.5949 55.8367 38.1341C61.7177 36.5005 68.0249 35.6815 74.2906 35.6532C80.5563 35.6815 86.8687 36.5 92.7606 38.1341C106.833 28.5955 113.016 30.577 113.016 30.577C117.029 40.7318 114.504 48.2314 113.739 50.0878C118.466 55.2511 121.326 61.8284 121.326 69.878C121.326 98.1959 104.078 104.431 87.6607 106.256C90.3051 108.544 92.6615 113.031 92.6615 119.91C92.6615 129.775 92.5763 137.714 92.5763 140.143C92.5763 142.105 93.9034 144.404 97.6405 143.679C126.919 133.92 148.018 106.293 148.018 73.7291C148.018 33.0088 115.008 0 74.2906 0ZM28.176 105.028C28.0136 105.394 27.437 105.504 26.9123 105.252C26.3772 105.012 26.0771 104.513 26.2499 104.145C26.4089 103.768 26.9866 103.663 27.52 103.916C28.0556 104.156 28.3609 104.66 28.176 105.028ZM31.8025 108.264C31.4512 108.59 30.7634 108.438 30.2969 107.923C29.8147 107.41 29.7243 106.722 30.0809 106.391C30.4437 106.065 31.1102 106.218 31.5934 106.732C32.0761 107.252 32.1694 107.934 31.8025 108.264ZM34.2908 112.404C33.8387 112.718 33.1002 112.424 32.6435 111.768C32.1919 111.113 32.1919 110.326 32.6533 110.011C33.1112 109.696 33.8387 109.98 34.3012 110.631C34.7516 111.297 34.7516 112.083 34.2903 112.405L34.2908 112.404ZM38.4979 117.199C38.0942 117.645 37.233 117.525 36.6029 116.917C35.9584 116.323 35.7792 115.479 36.1847 115.034C36.5937 114.587 37.4594 114.712 38.0942 115.316C38.7335 115.909 38.9294 116.759 38.4979 117.199ZM43.9365 118.818C43.758 119.396 42.9285 119.658 42.0939 119.413C41.2599 119.16 40.7144 118.484 40.8826 117.9C41.056 117.319 41.8889 117.046 42.7298 117.308C43.5627 117.559 44.1099 118.231 43.9365 118.818V118.818ZM50.1251 119.505C50.1458 120.113 49.4379 120.617 48.5612 120.628C47.68 120.648 46.9663 120.156 46.9565 119.557C46.9565 118.943 47.6489 118.444 48.5307 118.429C49.4074 118.412 50.1251 118.9 50.1251 119.505V119.505ZM56.2048 119.272C56.3096 119.865 55.7008 120.474 54.8298 120.637C53.9745 120.793 53.1819 120.427 53.073 119.839C52.9671 119.23 53.5874 118.621 54.4416 118.464C55.3137 118.312 56.0936 118.669 56.2048 119.272Z" fill="#161614"/>
</g>
<defs>
<clipPath id="clip0">
<rect width="147.46" height="144" fill="white" transform="translate(0.560059)"/>
</clipPath>
</defs>
</svg>
