<svg width="103" height="144" viewBox="0 0 103 144" fill="none" xmlns="http://www.w3.org/2000/svg">
<path d="M50.9979 143.636L9.44052 132.099L0.179443 28.228H101.941L92.6701 132.084L50.9979 143.636Z" fill="#264DE4"/>
<path d="M84.7333 125.47L92.6553 36.7208H51.0601V134.806L84.7333 125.47Z" fill="#2965F1"/>
<path d="M21.4099 75.2454L22.5515 87.9848H51.0599V75.2454H21.4099Z" fill="#EBEBEB"/>
<path d="M19.1155 49.4606L20.2735 62.2H51.0599V49.4606H19.1155Z" fill="#EBEBEB"/>
<path d="M51.06 108.331L51.0042 108.346L36.8164 104.515L35.9093 94.3547H23.1208L24.9055 114.358L51.0014 121.601L51.06 121.585V108.331Z" fill="#EBEBEB"/>
<path d="M24.1284 0H39.5576V6.45248H30.5809V12.905H39.5584V19.357H24.1284V0Z" fill="black"/>
<path d="M42.6437 0H58.0732V5.61081H49.0962V6.7329H58.0732V19.6378H42.6441V13.7458H51.6212V12.6237H42.6433V0H42.6437Z" fill="black"/>
<path d="M61.1597 0H76.5892V5.61081H67.6121V6.7329H76.5892V19.6378H61.1597V13.7458H70.1367V12.6237H61.1601V0H61.1597Z" fill="black"/>
<path d="M80.6286 75.2454L82.9282 49.4606H51.016V62.2H68.967L67.8078 75.2454H51.016V87.9848H66.7032L65.2242 104.507L51.0156 108.342V121.595L77.1323 114.358L77.3237 112.205L80.3178 78.6663L80.6286 75.2454Z" fill="white"/>
</svg>
