<svg width="145" height="144" viewBox="0 0 145 144" fill="none" xmlns="http://www.w3.org/2000/svg">
<g clip-path="url(#clip0)">
<path d="M141.844 65.5842L78.9726 2.71585C75.354 -0.904959 69.4815 -0.904959 65.8584 2.71585L52.8028 15.7715L69.3645 32.3332C73.2131 31.0327 77.6265 31.9051 80.6944 34.973C83.7769 38.0605 84.6431 42.5116 83.3111 46.3726L99.2721 62.3341C103.134 61.0038 107.589 61.8644 110.673 64.9537C114.984 69.2624 114.984 76.2459 110.673 80.5574C106.362 84.8695 99.3784 84.8695 95.0646 80.5574C91.8223 77.3118 91.0213 72.5502 92.6627 68.5559L77.7778 53.671L77.7761 92.8419C78.8551 93.3754 79.8407 94.0801 80.6944 94.9287C85.0048 99.2375 85.0048 106.221 80.6944 110.536C76.3828 114.846 69.396 114.846 65.0906 110.536C60.7802 106.221 60.7802 99.238 65.0906 94.9293C66.1236 93.8958 67.3512 93.0773 68.7024 92.5212V52.9854C67.3492 52.4329 66.1209 51.614 65.0906 50.5773C61.8247 47.3159 61.0395 42.524 62.7129 38.5139L46.3869 22.1862L3.27693 65.2934C-0.345566 68.9176 -0.345566 74.7907 3.27693 78.412L66.1498 141.282C69.7695 144.903 75.6409 144.903 79.2651 141.282L141.844 78.704C145.465 75.0815 145.465 69.205 141.844 65.5842" fill="#DE4C36"/>
</g>
<defs>
<clipPath id="clip0">
<rect width="144" height="144" fill="white" transform="translate(0.560059)"/>
</clipPath>
</defs>
</svg>
