<svg width="145" height="144" viewBox="0 0 145 144" fill="none" xmlns="http://www.w3.org/2000/svg">
<g clip-path="url(#clip0)">
<path d="M0.969971 125.432C0.969971 135.688 9.28316 144 19.5375 144H126.402C136.658 144 144.97 135.687 144.97 125.432V18.5681C144.97 8.31206 136.657 0 126.402 0H19.5381C9.28203 0 0.969971 8.31319 0.969971 18.5676V125.432V125.432Z" fill="#563D7C"/>
<path d="M60.6839 63.6964V43.3041H78.6338C80.3438 43.3041 81.992 43.4464 83.5793 43.7316C85.1667 44.0162 86.5713 44.5247 87.7925 45.2576C89.0131 45.9906 89.9901 47.0081 90.7231 48.3103C91.4555 49.6131 91.8222 51.282 91.8222 53.3166C91.8222 56.9801 90.7231 59.6261 88.5248 61.254C86.3271 62.8824 83.5186 63.6964 80.0991 63.6964H60.6839V63.6964ZM41.5122 28.4062V115.594H83.7627C87.6704 115.594 91.4763 115.106 95.1803 114.128C98.8844 113.151 102.181 111.646 105.071 109.61C107.961 107.575 110.261 104.95 111.97 101.734C113.68 98.5185 114.535 94.7126 114.535 90.3167C114.535 84.8621 113.212 80.2018 110.566 76.3352C107.92 72.468 103.911 69.7612 98.5379 68.2144C102.446 66.3424 105.397 63.9405 107.392 61.0099C109.386 58.0792 110.383 54.4163 110.383 50.0198C110.383 45.9495 109.711 42.5306 108.368 39.7626C107.025 36.9951 105.132 34.7766 102.69 33.1076C100.248 31.4387 97.3173 30.2377 93.8978 29.5054C90.479 28.7724 86.6933 28.4062 82.5415 28.4062H41.5122V28.4062ZM60.6839 100.696V76.7621H81.5645C85.7163 76.7621 89.0541 77.7184 91.5781 79.632C94.1015 81.5451 95.3637 84.7401 95.3637 89.2176C95.3637 91.4974 94.9767 93.3694 94.2033 94.8347C93.4298 96.3 92.392 97.4604 91.0893 98.3149C89.7871 99.1699 88.2807 99.7802 86.5713 100.147C84.8613 100.513 83.0708 100.696 81.1983 100.696H60.6839V100.696Z" fill="white"/>
</g>
<defs>
<clipPath id="clip0">
<rect width="144" height="144" fill="white" transform="translate(0.969971)"/>
</clipPath>
</defs>
</svg>
