 <svg
  width="84"
  height="204"
  viewBox="0 0 84 204"
  fill="none"
  xmlns="http://www.w3.org/2000/svg"
>
  <path
    d="M2.5 79L47.5 61.5L22.5 36.5L48 34L50 32.5L80 29.5L81 31L62.5 178L59.5 183.5L62 189L58.5 192L59.5 196.5L50.5 201.5L40 199.5L41.5 195L35.5 192L39 184.5L34.5 179.5L2.5 79Z"
    fill="white"
  />
  <path
    d="M22.5 37L35 48.5L47.5 61L23.5 70.5L22.5 37Z"
    fill="#DB9191"
  />
  <path d="M49 4L81 31L48.5 34.5L49 4Z" fill="#DF9F9F" />
  <path
    d="M34.1075 179.396L2.67344 80.8363C2.17346 79.3363 2.67347 78.3363 4.67344 77.8363"
    stroke="#B14546"
    stroke-width="3"
  />
  <path
    d="M3.13948 78.4345L22.1735 71.3363C23.1515 70.8 23.3468 70.2356 23.1735 68.8363"
    stroke="#B14546"
    stroke-width="3"
  />
  <path
    d="M23.2054 69.8821L22.1735 37.3363"
    stroke="#B14546"
    stroke-width="3"
  />
  <path
    d="M47.1735 34.3363L23.1735 36.3363C22.3842 36.5166 22.1189 36.7982 22.1735 37.8363"
    stroke="#B14546"
    stroke-width="3"
  />
  <path
    d="M48.1735 4.83627V32.8363C48.568 34.0879 48.0099 34.3481 46.1735 34.3363"
    stroke="#B14546"
    stroke-width="3"
  />
  <path
    d="M48.1735 5.33626C48.1972 3.7905 48.4567 3.23601 50.1735 3.83626L80.6587 30.7051C81.3738 31.4522 81.1735 31.3363 81.1735 31.8363"
    stroke="#B14546"
    stroke-width="3"
  />
  <line
    x1="81.1613"
    y1="31.0273"
    x2="62.1613"
    y2="179.027"
    stroke="#B14546"
    stroke-width="3"
  />
  <line
    x1="62.0151"
    y1="178.507"
    x2="59.0151"
    y2="184.507"
    stroke="#B14546"
    stroke-width="3"
  />
  <line
    x1="58.9758"
    y1="183.092"
    x2="62.9758"
    y2="190.092"
    stroke="#B14546"
    stroke-width="3"
  />
  <line
    x1="63.6337"
    y1="187.989"
    x2="57.6337"
    y2="192.989"
    stroke="#B14546"
    stroke-width="3"
  />
  <line
    x1="58.0965"
    y1="191.362"
    x2="60.0965"
    y2="197.362"
    stroke="#B14546"
    stroke-width="3"
  />
  <line
    x1="60.4452"
    y1="196.123"
    x2="50.4452"
    y2="202.123"
    stroke="#B14546"
    stroke-width="3"
  />
  <line
    x1="51.3362"
    y1="202.298"
    x2="38.3362"
    y2="199.298"
    stroke="#B14546"
    stroke-width="3"
  />
  <line
    x1="39.2947"
    y1="200.245"
    x2="42.2947"
    y2="193.245"
    stroke="#B14546"
    stroke-width="3"
  />
  <line
    x1="43.0643"
    y1="195.207"
    x2="34.0643"
    y2="191.207"
    stroke="#B14546"
    stroke-width="3"
  />
  <line
    x1="35.2807"
    y1="193.279"
    x2="39.2807"
    y2="183.279"
    stroke="#B14546"
    stroke-width="3"
  />
  <line
    x1="39.6128"
    y1="184.897"
    x2="33.6128"
    y2="178.897"
    stroke="#B14546"
    stroke-width="3"
  />
  <line
    x1="23.3654"
    y1="37.1143"
    x2="47.3654"
    y2="60.1143"
    stroke="#B14546"
    stroke-width="2"
  />
  <path
    d="M50.7478 170.807L47.6731 60.8083C47.5695 60.1364 47.3607 59.8115 46.6735 59.3363"
    stroke="#B14546"
    stroke-width="2"
  />
  <line
    x1="22.3066"
    y1="71.16"
    x2="48.3066"
    y2="60.906"
    stroke="#B14546"
    stroke-width="2"
  />
  <line
    x1="46.9203"
    y1="34.7309"
    x2="81.046"
    y2="32.0032"
    stroke="#B14546"
    stroke-width="2"
  />
  <line
    x1="50.5417"
    y1="170.332"
    x2="46.5417"
    y2="177.332"
    stroke="#B14546"
    stroke-width="2"
  />
  <line
    x1="46.5055"
    y1="176.282"
    x2="50.5055"
    y2="182.282"
    stroke="#B14546"
    stroke-width="2"
  />
  <line
    x1="50.5679"
    y1="181.283"
    x2="46.5679"
    y2="189.283"
    stroke="#B14546"
    stroke-width="2"
  />
  <line
    x1="45.3806"
    y1="189.129"
    x2="50.3806"
    y2="194.129"
    stroke="#B14546"
    stroke-width="2"
  />
  <line
    x1="49.6673"
    y1="192.726"
    x2="50.6673"
    y2="201.726"
    stroke="#B14546"
    stroke-width="2"
  />
</svg>