<svg width="103" height="144" viewBox="0 0 103 144" fill="none" xmlns="http://www.w3.org/2000/svg">
<path d="M101.941 28.228L92.6701 132.083L50.9979 143.636L9.44052 132.099L0.179443 28.228H101.941Z" fill="#E44D26"/>
<path d="M51.0601 134.806L84.7333 125.47L92.6553 36.7208H51.0601V134.806Z" fill="#F16529"/>
<path d="M33.038 62.2H51.0599V49.4606H19.1155L19.4202 52.8783L22.5515 87.9848H51.0599V75.2454H34.2024L33.038 62.2V62.2Z" fill="#EBEBEB"/>
<path d="M35.9093 94.3547H23.1208L24.9055 114.358L51.0014 121.601L51.06 121.585V108.331L51.0042 108.346L36.8164 104.515L35.9093 94.3547V94.3547Z" fill="#EBEBEB"/>
<path d="M9.64697 0H16.121V6.39623H22.0433V0H28.5178V19.3694H22.0437V12.8834H16.1214V19.3694H9.64737V0H9.64697Z" fill="black"/>
<path d="M37.0311 6.42336H31.3325V0H49.2085V6.42336H43.5063V19.3694H37.0323V6.42336H37.0319H37.0311Z" fill="black"/>
<path d="M52.0452 0H58.7956L62.9481 6.80589L67.0966 0H73.8498V19.3694H67.4021V9.76886L62.9481 16.6557H62.8364L58.3796 9.76886V19.3694H52.0452V0Z" fill="black"/>
<path d="M77.0717 0H83.5477V12.9672H92.652V19.3694H77.0713V0H77.0717Z" fill="black"/>
<path d="M51.016 87.9848H66.7032L65.2242 104.507L51.0156 108.342V121.595L77.1323 114.358L77.3237 112.205L80.3178 78.6663L80.6286 75.2454H51.016V87.9848Z" fill="white"/>
<path d="M51.0161 62.1689V62.2H81.7878L82.0431 59.3368L82.6239 52.8783L82.9283 49.4606H51.0161V62.1693V62.1689Z" fill="white"/>
</svg>

