<svg width="506" height="144" viewBox="0 0 506 144" fill="none" xmlns="http://www.w3.org/2000/svg">
<g clip-path="url(#clip0)">
<path fill-rule="evenodd" clip-rule="evenodd" d="M470.745 59.6348C470.291 59.7255 469.835 60.7266 469.835 61.272C469.744 64.9134 469.654 74.5614 469.654 81.1144C469.654 81.2969 469.926 81.6608 470.199 81.6608C471.564 81.7516 474.841 81.8423 477.662 81.8423C481.576 81.8423 483.852 81.2969 485.127 80.7515C488.402 79.1122 489.95 75.5625 489.95 71.6479C489.95 62.8205 483.761 59.4523 474.567 59.4523C473.93 59.3616 472.112 59.3616 470.745 59.6348V59.6348ZM494.228 100.32C494.228 91.3088 487.584 86.3024 475.57 86.3024C475.023 86.3024 471.2 86.2116 470.29 86.3931C470.017 86.4848 469.654 86.6673 469.654 86.9405C469.654 93.4018 469.562 103.688 469.835 107.692C470.017 109.421 471.292 111.879 472.839 112.607C474.477 113.517 478.209 113.699 480.758 113.699C487.948 113.699 494.228 109.694 494.228 100.32V100.32ZM452.178 54.6293C453.088 54.6293 455.818 54.9015 462.827 54.9015C469.471 54.9015 474.75 54.72 481.212 54.72C489.13 54.72 500.053 57.5408 500.053 69.3735C500.053 75.1986 495.956 79.8411 490.587 82.1165C490.315 82.2073 490.315 82.3887 490.587 82.4795C498.232 84.3919 504.968 89.1242 504.968 98.0433C504.968 106.782 499.507 112.334 491.588 115.793C486.764 117.886 480.758 118.614 474.659 118.614C470.017 118.614 457.548 118.068 450.631 118.251C449.903 117.976 451.268 114.7 451.904 114.155C453.543 114.063 454.817 113.972 456.547 113.426C459.005 112.789 459.277 112.061 459.641 108.329C459.823 105.144 459.823 93.8565 459.823 85.8477C459.823 74.8347 459.915 67.3713 459.823 63.7309C459.733 60.91 458.731 59.9987 456.729 59.4523C455.181 59.1801 452.633 58.8151 450.539 58.5429C450.084 58.0873 451.631 54.9922 452.178 54.6293ZM399.66 111.242C401.846 112.97 406.123 113.698 409.946 113.698C414.861 113.698 419.775 112.789 424.509 108.51C429.333 104.143 432.7 97.4071 432.7 86.6673C432.7 76.3812 428.786 68.0075 420.777 63.0937C416.226 60.2709 410.401 59.0893 403.665 59.0893C401.663 59.0893 399.752 59.1801 398.569 59.7255C398.295 59.908 397.659 60.7266 397.659 61.1813C397.476 63.002 397.476 77.0183 397.476 85.2105C397.476 93.675 397.476 105.508 397.659 106.873C397.659 108.239 398.295 110.332 399.661 111.242H399.66ZM378.999 54.6283C380.729 54.6283 387.373 54.9015 390.558 54.9015C396.294 54.9015 400.389 54.6293 411.219 54.6293C420.321 54.6293 427.967 57.0862 433.428 61.7277C440.072 67.462 443.532 75.3811 443.532 85.0281C443.532 98.7722 437.251 106.691 430.97 111.242C424.691 115.884 416.499 118.614 404.849 118.614C398.66 118.614 388.011 118.432 379.181 118.34H379.091C378.636 117.522 379.818 114.336 380.546 114.245C382.913 113.972 383.551 113.88 384.734 113.427C386.645 112.698 387.01 111.697 387.283 108.329C387.555 102.049 387.464 94.4946 387.464 85.9384C387.464 79.8411 387.555 67.9167 387.373 64.0938C387.1 60.9091 385.735 60.0894 383.004 59.543C381.639 59.2708 379.818 58.9059 377.271 58.6337C376.906 57.9955 378.544 55.1747 378.999 54.6293V54.6283Z" fill="#8E714E"/>
<path fill-rule="evenodd" clip-rule="evenodd" d="M268.868 114.791C266.593 114.517 264.955 114.155 262.953 113.244C262.679 113.062 262.224 112.152 262.224 111.787C262.042 108.602 262.042 99.5001 262.042 93.4027C262.042 88.487 261.224 84.2094 259.13 81.2061C256.672 77.7462 253.123 75.745 248.571 75.745C244.567 75.745 239.197 78.4751 234.736 82.298C234.646 82.3887 233.918 83.0269 234.009 82.0248C234.009 81.0237 234.191 79.0215 234.282 77.6555C234.374 76.3812 233.645 75.745 233.645 75.745C230.732 77.2008 222.541 79.1122 219.537 79.3844C217.353 79.8411 216.806 81.934 219.083 82.6619H219.174C221.63 83.3898 223.269 84.2094 224.542 85.0291C225.452 85.7569 225.362 86.758 225.362 87.5777C225.452 94.4029 225.452 104.87 225.18 110.605C225.089 112.88 224.452 113.699 222.813 114.063L222.996 113.972C221.721 114.245 220.72 114.517 219.173 114.7C218.626 115.246 218.626 118.159 219.173 118.796C220.174 118.796 225.452 118.523 229.823 118.523C235.829 118.523 238.924 118.796 240.471 118.796C241.108 118.068 241.29 115.337 240.926 114.7C239.197 114.609 237.922 114.428 236.74 114.063C235.101 113.698 234.646 112.88 234.554 110.969C234.374 106.144 234.374 95.9504 234.374 89.0334C234.374 87.122 234.919 86.2116 235.464 85.6652C237.558 83.8455 240.926 82.5712 243.93 82.5712C246.842 82.5712 248.753 83.4815 250.21 84.6651C252.212 86.3024 252.849 88.6695 253.122 90.3985C253.577 94.3121 253.395 102.049 253.395 108.784C253.395 112.425 253.122 113.335 251.758 113.79C251.12 114.063 249.482 114.428 247.57 114.608C246.933 115.246 247.116 118.068 247.57 118.705C250.21 118.705 253.305 118.432 257.855 118.432C263.498 118.432 267.139 118.705 268.596 118.705C269.05 118.159 269.232 115.52 268.868 114.791V114.791ZM294.08 80.0236C289.257 80.0236 286.253 83.7547 286.253 89.5789C286.253 95.4957 288.892 102.322 296.356 102.322C297.63 102.322 299.997 101.775 301.088 100.501C302.818 98.8639 304.001 95.5864 304.001 92.1275C304.001 84.5734 300.269 80.0226 294.08 80.0226V80.0236ZM293.443 120.252C291.623 120.252 290.348 120.798 289.529 121.254C285.707 123.71 283.978 126.077 283.978 128.9C283.978 131.538 284.979 133.631 287.163 135.452C289.803 137.727 293.443 138.82 298.085 138.82C307.369 138.82 311.465 133.813 311.465 128.9C311.465 125.44 309.735 123.164 306.186 121.891C303.637 120.798 298.996 120.252 293.443 120.252V120.252ZM294.08 143.917C288.528 143.917 284.523 142.734 281.065 140.094C277.697 137.546 276.241 133.723 276.241 131.083C276.241 130.356 276.423 128.352 278.062 126.533C279.062 125.44 281.247 123.347 286.435 119.797C286.617 119.706 286.708 119.616 286.708 119.432C286.708 119.251 286.525 119.068 286.344 118.979C282.066 117.34 280.792 114.7 280.427 113.244V113.062C280.337 112.515 280.155 111.97 280.974 111.423C281.611 110.969 282.522 110.422 283.522 109.786C285.069 108.875 286.708 107.874 287.709 107.054C287.891 106.873 287.891 106.691 287.891 106.509C287.891 106.326 287.709 106.144 287.526 106.054C281.157 103.96 277.971 99.2269 277.971 92.1275C277.971 87.4859 280.064 83.2991 283.795 80.6597C286.344 78.6575 292.715 76.1997 296.902 76.1997H297.175C301.453 76.2904 303.819 77.2008 307.186 78.3843C309.007 79.0215 310.737 79.2937 313.104 79.2937C316.653 79.2937 318.2 78.2019 319.474 76.9286C319.565 77.11 319.748 77.5657 319.838 78.7483C319.929 79.9318 319.565 81.6608 318.655 82.9351C317.927 83.9362 316.289 84.6651 314.651 84.6651H314.195C312.557 84.4826 311.828 84.3002 311.828 84.3002L311.465 84.4826C311.374 84.6651 311.465 84.8466 311.556 85.1198L311.647 85.3023C311.829 86.1209 312.193 88.5778 312.193 89.2159C312.193 96.6792 309.189 99.9547 306.004 102.413C302.909 104.688 299.36 106.144 295.355 106.509C295.264 106.509 294.901 106.509 294.08 106.599C293.626 106.599 292.988 106.691 292.897 106.691H292.806C292.078 106.873 290.258 107.783 290.258 109.33C290.258 110.695 291.077 112.334 294.991 112.607C295.809 112.698 296.628 112.698 297.539 112.789C302.727 113.152 309.189 113.608 312.193 114.609C316.38 116.156 319.019 119.888 319.019 124.348C319.019 131.084 314.196 137.364 306.186 141.277C302.272 143.007 298.358 143.917 294.08 143.917V143.917ZM345.96 80.4783C344.049 80.4783 342.319 80.932 341.045 81.8423C337.496 84.027 335.676 88.3963 335.676 94.7668C335.676 106.691 341.682 115.065 350.238 115.065C352.787 115.065 354.789 114.336 356.518 112.88C359.157 110.695 360.523 106.326 360.523 100.228C360.523 88.3963 354.607 80.4773 345.961 80.4773L345.96 80.4783ZM347.599 119.433C332.126 119.433 326.574 108.056 326.574 97.4071C326.574 89.9438 329.577 84.2094 335.584 80.1133C339.862 77.474 344.96 76.0182 349.51 76.0182C361.342 76.0182 369.625 84.4826 369.625 96.6792C369.625 104.961 366.348 111.514 360.068 115.52C357.064 117.522 351.876 119.433 347.598 119.433H347.599V119.433ZM185.406 80.4773C183.494 80.4773 181.765 80.932 180.49 81.8423C176.941 84.027 175.12 88.3963 175.12 94.7668C175.12 106.691 181.127 115.065 189.683 115.065C192.232 115.065 194.234 114.336 195.964 112.88C198.602 110.695 199.968 106.326 199.968 100.228C199.968 88.3963 194.143 80.4773 185.406 80.4773ZM187.044 119.433C171.571 119.433 166.019 108.056 166.019 97.4071C166.019 89.9438 169.022 84.2094 175.029 80.1133C179.307 77.474 184.405 76.0182 188.955 76.0182C200.788 76.0182 209.07 84.4826 209.07 96.6792C209.07 104.961 205.793 111.514 199.513 115.52C196.6 117.522 191.412 119.433 187.044 119.433ZM83.0108 118.523C82.8283 118.251 82.6458 117.431 82.7376 116.43C82.7376 115.701 82.92 115.246 83.0108 115.065C84.9222 114.791 85.9233 114.517 87.0151 114.245C88.8359 113.79 89.5638 112.789 89.6545 110.514C89.9287 105.053 89.9287 94.6761 89.837 87.4859V87.3035C89.837 86.4848 89.837 85.4827 88.8359 84.7549C87.3791 83.8455 85.6501 83.0269 83.3747 82.3877C82.5561 82.1165 82.0097 81.6608 82.1004 81.1154C82.1004 80.569 82.6468 79.9318 83.8304 79.7494C86.8337 79.4762 94.66 77.5657 97.755 76.1997C97.9374 76.3812 98.2106 76.9286 98.2106 77.6565L98.1199 78.6566C98.0282 79.6586 97.9374 80.8422 97.9374 82.0248C97.9374 82.3887 98.3024 82.6619 98.6653 82.6619C98.8478 82.6619 99.0303 82.5712 99.2117 82.4795C105.037 77.9287 110.316 76.2904 113.046 76.2904C117.507 76.2904 120.966 78.3843 123.605 82.7527C123.786 83.0269 123.969 83.1176 124.242 83.1176C124.424 83.1176 124.696 83.0269 124.788 82.8444C130.158 78.7483 135.528 76.2904 139.077 76.2904C147.541 76.2904 152.548 82.5712 152.548 93.2203C152.548 96.2236 152.548 100.137 152.457 103.688C152.457 106.873 152.366 109.785 152.366 111.879C152.366 112.333 153.003 113.79 154.004 114.063C155.278 114.7 157.008 114.973 159.283 115.337H159.374C159.557 115.974 159.193 118.34 158.829 118.796C158.282 118.796 157.463 118.796 156.553 118.705C154.249 118.585 151.943 118.524 149.635 118.523C143.993 118.523 141.08 118.614 138.257 118.796C138.077 118.068 137.985 115.884 138.257 115.337C139.897 115.065 140.715 114.791 141.717 114.518C143.538 113.972 143.993 113.152 144.085 110.786C144.085 109.057 144.447 94.3121 143.901 90.7624C143.356 87.122 140.625 82.8444 134.617 82.8444C132.342 82.8444 128.793 83.7548 125.334 86.3931C125.152 86.5756 124.969 87.0303 124.969 87.3035V87.3952C125.334 89.3057 125.334 91.4913 125.334 94.8585V100.774C125.334 104.87 125.242 108.693 125.334 111.605C125.334 113.608 126.518 114.063 127.519 114.428C128.065 114.517 128.428 114.609 128.884 114.7C129.702 114.882 130.522 115.065 131.796 115.337C131.979 115.702 131.979 116.885 131.705 117.886C131.614 118.432 131.431 118.704 131.341 118.796C128.246 118.705 125.061 118.614 120.419 118.614C119.054 118.614 116.687 118.705 114.685 118.705C113.046 118.705 111.499 118.796 110.59 118.796C110.498 118.614 110.316 117.977 110.316 116.975C110.316 116.157 110.498 115.52 110.68 115.337C111.135 115.246 111.499 115.156 111.955 115.156C113.046 114.973 113.957 114.791 114.866 114.609C116.415 114.155 116.96 113.335 117.051 111.333C117.324 106.782 117.597 93.7667 116.96 90.4892C115.868 85.2105 112.865 82.5712 108.04 82.5712C105.219 82.5712 101.669 83.9362 98.7571 86.1219C98.3014 86.4848 97.9374 87.3942 97.9374 88.2138V93.5842C97.9374 100.137 97.9374 108.329 98.0282 111.879C98.1199 112.97 98.4829 114.245 100.577 114.7C101.032 114.791 101.76 114.973 102.671 115.065L104.308 115.337C104.491 115.884 104.4 118.068 104.036 118.796C103.125 118.796 102.034 118.705 100.758 118.705C98.8478 118.614 96.3899 118.523 93.6599 118.523C90.4741 118.523 88.1987 118.614 86.378 118.705C85.1037 118.523 84.1026 118.523 83.0108 118.523V118.523Z" fill="#442D22"/>
<path fill-rule="evenodd" clip-rule="evenodd" d="M35.1348 140.367L31.4036 139.092C31.4036 139.092 31.8592 120.07 25.0321 118.705C20.4823 113.426 25.7619 -105.198 42.1444 117.976C42.1444 117.976 36.5008 120.797 35.4997 125.622C34.4069 130.356 35.1348 140.367 35.1348 140.367V140.367Z" fill="white"/>
<path fill-rule="evenodd" clip-rule="evenodd" d="M35.1348 140.367L31.4036 139.092C31.4036 139.092 31.8592 120.07 25.0321 118.705C20.4823 113.426 25.7619 -105.198 42.1444 117.976C42.1444 117.976 36.5008 120.797 35.4997 125.622C34.4069 130.356 35.1348 140.367 35.1348 140.367V140.367Z" fill="#A6A385"/>
<path fill-rule="evenodd" clip-rule="evenodd" d="M37.1379 121.982C37.1379 121.982 69.8141 100.501 62.1673 55.8109C54.7957 23.3192 37.4111 12.6701 35.4997 8.57395C33.4067 5.6614 31.4036 0.565186 31.4036 0.565186L32.7696 90.9439C32.7696 91.0357 29.9478 118.614 37.1389 121.983" fill="white"/>
<path fill-rule="evenodd" clip-rule="evenodd" d="M37.1379 121.982C37.1379 121.982 69.8141 100.501 62.1673 55.8109C54.7957 23.3192 37.4111 12.6701 35.4997 8.57395C33.4067 5.6614 31.4036 0.565186 31.4036 0.565186L32.7696 90.9439C32.7696 91.0357 29.9478 118.614 37.1389 121.983" fill="#499D4A"/>
<path fill-rule="evenodd" clip-rule="evenodd" d="M29.493 123.164C29.493 123.164 -1.18098 102.23 0.639729 65.3691C2.36872 28.507 24.0309 10.3946 28.2177 7.11811C30.9488 4.20557 31.0395 3.11274 31.222 0.200195C33.1334 4.2963 32.7695 61.4554 33.0417 68.1899C33.8603 94.1296 31.5859 118.251 29.493 123.164Z" fill="white"/>
<path fill-rule="evenodd" clip-rule="evenodd" d="M29.493 123.164C29.493 123.164 -1.18098 102.23 0.639729 65.3691C2.36872 28.507 24.0309 10.3946 28.2177 7.11811C30.9488 4.20557 31.0395 3.11274 31.222 0.200195C33.1334 4.2963 32.7695 61.4554 33.0417 68.1899C33.8603 94.1296 31.5859 118.251 29.493 123.164Z" fill="#58AA50"/>
</g>
<defs>
<clipPath id="clip0">
<rect width="504.99" height="144" fill="white" transform="translate(0.560059)"/>
</clipPath>
</defs>
</svg>
