<svg width="342" height="144" viewBox="0 0 342 144" fill="none" xmlns="http://www.w3.org/2000/svg">
<g clip-path="url(#clip0)">
<path d="M204.532 49.6187C197.069 49.6187 191.512 53.2827 191.512 62.1014C191.512 68.7454 195.175 73.3587 204.129 73.3587C211.72 73.3587 216.876 68.8854 216.876 61.8254C216.876 53.8254 212.263 49.6187 204.532 49.6187V49.6187ZM189.612 111.887C187.845 114.053 186.085 116.357 186.085 119.073C186.085 124.496 193 126.128 202.499 126.128C210.365 126.128 221.083 125.576 221.083 118.261C221.083 113.913 215.927 113.645 209.412 113.237L189.612 111.887V111.887ZM229.763 50.028C232.2 53.148 234.781 57.4907 234.781 63.7294C234.781 78.7854 222.98 87.6014 205.892 87.6014C201.547 87.6014 197.613 87.0601 195.175 86.3827L190.696 93.5694L203.988 94.3827C227.457 95.8787 241.288 96.5587 241.288 114.592C241.288 130.195 227.592 139.007 203.988 139.007C179.437 139.007 170.077 132.767 170.077 122.052C170.077 115.948 172.791 112.699 177.539 108.215C173.061 106.323 171.571 102.933 171.571 99.268C171.571 96.2814 173.061 93.5707 175.507 90.9907C177.947 88.4174 180.659 85.8374 183.915 82.8534C177.269 79.5974 172.248 72.544 172.248 62.504C172.248 46.908 182.559 36.196 203.308 36.196C209.143 36.196 212.671 36.732 215.791 37.552H242.244V49.0774L229.763 50.028V50.028Z" fill="#2F2707"/>
<path d="M266.108 25.3787C258.375 25.3787 253.899 20.8987 253.899 13.164C253.899 5.44005 258.373 1.23071 266.108 1.23071C273.975 1.23071 278.452 5.44005 278.452 13.164C278.452 20.8987 273.976 25.3787 266.108 25.3787ZM248.607 106.895V96.1841L255.527 95.2374C257.427 94.9641 257.696 94.5587 257.696 92.5201V52.64C257.696 51.152 257.291 50.1974 255.929 49.7947L248.607 47.2147L250.097 36.2307H278.179V92.5201C278.179 94.6934 278.309 94.9641 280.351 95.2387L287.268 96.1854V106.895H248.607V106.895Z" fill="#2F2707"/>
<path d="M340.909 101.636C335.075 104.483 326.529 107.06 318.795 107.06C302.653 107.06 296.552 100.556 296.552 85.22V49.6853C296.552 48.872 296.552 48.3294 295.463 48.3294H285.969V36.2533C297.909 34.8933 302.653 28.9253 304.145 14.14H317.033V33.4067C317.033 34.3533 317.033 34.7627 318.12 34.7627H337.244V48.3267H317.033V80.744C317.033 88.7467 318.935 91.864 326.256 91.864C330.059 91.864 333.988 90.9174 337.243 89.696L340.909 101.635" fill="#2F2707"/>
<path d="M139.925 66.04L77.9041 4.02264C77.0547 3.173 76.0463 2.49901 74.9364 2.03917C73.8265 1.57933 72.6368 1.34265 71.4354 1.34265C70.2341 1.34265 69.0444 1.57933 67.9345 2.03917C66.8246 2.49901 65.8162 3.173 64.9668 4.02264L52.0881 16.9026L68.4254 33.2386C70.3458 32.5856 72.4107 32.4833 74.3862 32.9436C76.3617 33.4038 78.1688 34.4081 79.6028 35.8426C81.0445 37.2863 82.0511 39.1063 82.5075 41.0948C82.964 43.0833 82.8519 45.1601 82.1841 47.088L97.9268 62.8333C101.736 61.5213 106.132 62.3706 109.173 65.4173C110.185 66.4278 110.987 67.6277 111.534 68.9483C112.081 70.2689 112.363 71.6845 112.363 73.114C112.363 74.5435 112.081 75.959 111.534 77.2797C110.987 78.6003 110.185 79.8001 109.173 80.8107C107.394 82.5913 105.053 83.7004 102.549 83.9492C100.044 84.198 97.5304 83.5711 95.4359 82.1751C93.3414 80.7792 91.7954 78.7006 91.061 76.2931C90.3267 73.8855 90.4493 71.2979 91.4081 68.9706L76.7255 54.288L76.7241 92.928C77.7885 93.4543 78.7607 94.1495 79.6028 94.9866C80.6138 95.9975 81.4159 97.1976 81.9631 98.5184C82.5103 99.8393 82.7919 101.255 82.7919 102.685C82.7919 104.114 82.5103 105.53 81.9631 106.851C81.4159 108.172 80.6138 109.372 79.6028 110.383C75.3494 114.636 68.4561 114.636 64.2094 110.383C62.9408 109.115 62.005 107.553 61.4853 105.837C60.9657 104.12 60.8782 102.302 61.2308 100.543C61.5833 98.7845 62.365 97.1403 63.5062 95.7566C64.6474 94.373 66.1128 93.2927 67.7721 92.612V53.612C66.4373 53.0669 65.2257 52.2588 64.2094 51.236C60.9881 48.0186 60.2135 43.292 61.8641 39.336L45.7601 23.2293L3.23478 65.752C2.38501 66.6017 1.71094 67.6105 1.25104 68.7207C0.791148 69.831 0.554443 71.0209 0.554443 72.2226C0.554443 73.4244 0.791148 74.6143 1.25104 75.7246C1.71094 76.8348 2.38501 77.8436 3.23478 78.6933L65.2561 140.712C66.9719 142.427 69.2987 143.391 71.7248 143.391C74.1509 143.391 76.4777 142.427 78.1934 140.712L139.925 78.9826C141.641 77.266 142.605 74.9383 142.605 72.5113C142.605 70.0843 141.641 67.7567 139.925 66.04" fill="#DE4C36"/>
</g>
<defs>
<clipPath id="clip0">
<rect width="341.34" height="144" fill="white" transform="translate(0.550049)"/>
</clipPath>
</defs>
</svg>
